<?xml version="1.0" encoding="utf-8"?>
<!-- Generator: Adobe Illustrator 19.1.0, SVG Export Plug-In . SVG Version: 6.00 Build 0)  -->
<svg version="1.1" id="Layer_1" xmlns="http://www.w3.org/2000/svg" xmlns:xlink="http://www.w3.org/1999/xlink" x="0px" y="0px"
	 viewBox="-290 373 31 47" style="enable-background:new -290 373 31 47;" xml:space="preserve">
<style type="text/css">
	.st0{fill:#D7D7D7;}
</style>
<title>A5E1CD03-1D1D-484E-A59F-4101FF9EDCC7</title>
<desc>Created with sketchtool.</desc>
<g id="Homepage">
	<g id="_x31_.Homepage.Desktop.1.5-News" transform="translate(-1326.000000, -395.000000)">
		<g id="News-" transform="translate(-1.000000, 54.000000)">
			<g id="Arrows" transform="translate(78.000000, 341.000000)">
				<path id="Fill-1" class="st0" d="M989.8,395.5c-0.4-3.2-2.2-5.8-4.6-8c-0.6-0.3-0.7-0.9-0.9-1.5c-2.4-2.8-5.2-5.2-7.7-7.9
					c-1.6-1.7-3.5-3.4-5.8-4.4c-0.8,0.6-0.9-0.5-1.4-0.6c-0.2-0.1-0.3-0.1-0.5-0.1c-0.6,0.1-1.1,0.1-1.7,0c-1.1,0.9-2.1-0.2-3.1-0.1
					c-0.2,0-0.3,0.1-0.5,0.2c-0.6,0.6-1.4,0.9-1.9,1.7c-0.1,0.3,0.1,0.7-0.2,0.9c-0.2,0.1-0.3-0.3-0.5-0.4c-1.9,0-2.5,1-1.5,2.6
					c2.1,3.4,5.3,5.8,8.1,8.6c2.7,2.7,5.9,5,8.5,7.9c1.4,1.5,1.3,1.9-0.1,3.3c-0.8,0.7-1.8,1.2-2.2,2.3c-1.1,0.9-2.6,1.4-3,3.1l0,0
					c0,0,0,0,0,0c0,0,0,0,0,0l0,0c-0.6,0.2-1,0.5-1.1,1.2c-0.4,0.1-3.7,2.6-3.6,3c0,0.1,0.1,0.2,0.2,0.4c-0.8,0.1-0.7,1-1.1,1.5
					c-0.9,1.9-2.4,3.3-3.8,4.8c-0.3,0.3-0.5,0.5-0.5,0.9c0,0.5-0.8,1,0,1.4c0.5,0.2,0.8,0.5,0.8,1c0,0.2,0.1,0.3,0.2,0.5
					c0.2,0.5,0.5,0.9,1,1.2c0.3,0.1,0.7,0.1,1,0.1c1-0.1,1.6,1.3,2.7,0.8c0.2,0,0.3-0.1,0.5-0.2c0.8-0.7,1.6-0.8,2.5-0.2
					c0.3,0.2,0.7,0.2,1,0.2c0.7-0.3,0.8-1.3,1.5-1.6c1-0.6,1.7-1.5,2.3-2.5c0.9,0.1,1.4-0.4,1.9-1.1l0.1-0.1l0.1,0.1
					c0.4-0.1,0.8-0.3,1.1-0.6c0.7-1,1.7-1.6,2.7-2.2c1.3-1.6,5.3-5.9,7-7.1c0.1-0.1,0.3-0.2,0.4-0.4c0.4-0.4,0.3-1.1,0.7-1.5
					C989.9,400.5,990.1,398,989.8,395.5"/>
			</g>
		</g>
	</g>
</g>
</svg>
