<?xml version="1.0" encoding="UTF-8" standalone="no"?>
<svg width="101px" height="89px" viewBox="0 0 101 89" version="1.1" xmlns="http://www.w3.org/2000/svg" xmlns:xlink="http://www.w3.org/1999/xlink">
    <!-- Generator: sketchtool 44.1 (41455) - http://www.bohemiancoding.com/sketch -->
    <title>D5D262D4-AFEE-425C-8912-3FD546766146</title>
    <desc>Created with sketchtool.</desc>
    <defs></defs>
    <g id="Desktop-Template" stroke="none" stroke-width="1" fill="none" fill-rule="evenodd" opacity="0.899999976">
        <g id="1.0_Page_Builder_Master_Desktop" transform="translate(-1144.000000, -2343.000000)" fill="#5DB817">
            <g id="Stacked_Promo" transform="translate(0.000000, 2024.000000)">
                <g id="Financial-Aid-Section" transform="translate(838.000000, 68.000000)">
                    <g id="Hand-Drawn-Arrow" transform="translate(354.848024, 289.421479) scale(-1, 1) rotate(-18.000000) translate(-354.848024, -289.421479) translate(313.348024, 237.921479)">
                        <path d="M52.0884842,78.7117746 C49.5527422,78.1490817 47.1272499,77.3626475 44.8249928,76.3257565 C47.4755675,76.6555246 49.7661122,77.7160002 52.0884842,78.7117746 Z M43.3835996,75.7401051 C42.63324,74.7967179 41.4311878,74.4352253 40.2484866,74.042843 C40.2711476,73.9088487 40.0827302,73.59703 40.4307932,73.7425036 C41.6572887,74.2548964 42.8287867,74.8545317 44.0346581,75.4007361 C44.3923966,75.5626982 44.2704345,75.7413574 44.0983127,75.8885007 C43.7917524,76.1506455 43.5310235,75.9254431 43.3835996,75.7401051 Z M33.9466879,69.7944701 C34.9262038,70.3932705 35.9059744,70.9922796 36.8854903,71.59108 C36.8271828,71.664756 36.7686206,71.7384321 36.7103131,71.8123168 C35.4306024,71.508638 34.9116906,70.424995 33.9466879,69.7944701 Z M10.7535226,43.2454267 C10.0943163,42.2114577 8.98112581,41.3267191 9.20620823,40.0005505 C10.0472119,40.9729489 10.3754147,42.1179538 10.7535226,43.2454267 Z M2.63018583,11.5252858 C2.90721036,12.6026674 3.02484393,13.5404192 2.80969161,14.4963292 C2.91790432,13.5483504 2.32515332,12.6300089 2.63018583,11.5252858 Z M76.9611106,74.6804642 C72.8418986,70.1960358 69.9952679,65.1633158 67.8353423,59.8851481 C65.5738241,54.3590283 63.5231297,48.771964 61.9709776,43.0749074 C61.6361547,41.8470431 60.9672729,40.7965856 59.7922102,39.9974198 C59.2391797,39.621526 58.6693443,39.2794438 58.3724596,38.6002885 C57.6004574,39.3462322 56.9303025,39.5463889 56.4544212,38.5316216 C56.3846558,38.3836434 56.2863732,38.3842695 56.0775864,38.4318563 C54.8704418,38.7075675 54.3848851,39.3061592 54.6410309,40.3305273 C54.7095232,40.6051949 54.8658587,40.9464423 54.474256,41.1966903 C53.8349099,41.0455814 54.1567472,40.3459722 53.6123737,40.1639736 C53.1530426,40.6329539 53.4855738,41.6554436 52.4907808,41.6182925 C50.8482393,41.5571394 51.13112,42.3164408 51.249772,43.118946 C51.3365968,43.7037626 51.3694426,44.2935882 51.4282594,44.8811181 C51.6001266,46.6061391 51.4246947,48.344309 51.9051591,50.060564 C53.6989438,56.469544 56.0108764,62.7424424 58.9471327,68.8652755 C59.5396291,70.1004448 60.4088954,71.2585986 60.7467736,72.6763927 C55.8099827,71.6551552 51.2087785,70.1766254 46.9648036,68.0504562 C43.9149876,66.5224612 40.8524408,64.9867438 38.3775526,62.7889856 C37.2088554,61.7508423 35.7150108,60.9631558 34.4961538,59.9575719 C31.1413054,57.1891898 28.4874206,53.9668547 25.8808948,50.7255267 C22.9115382,47.0325417 20.5705792,43.0623845 18.3920664,39.0266912 C16.7462149,35.97738 15.4092151,32.8339389 14.3423651,29.6199524 C12.6601031,24.5525859 11.6082757,19.3827408 10.6982705,14.1891023 C10.2447956,11.6008403 9.27139047,9.06016511 9.58813542,6.40636695 C9.8096532,4.55110845 9.63192974,2.80876421 8.00288296,1.38032578 C7.8615699,1.76394206 7.69963277,2.2037024 7.51859928,2.6952238 C7.01852927,2.02650424 7.73884396,1.35861952 7.34087582,0.72684233 C6.80745085,0.961228121 6.83469498,1.32146844 6.7618742,1.66167221 C6.64194906,2.22332151 6.42603289,2.50821609 5.84499432,1.86433348 C5.62729582,1.62306013 5.10609251,1.19310934 4.94186382,1.85702849 C4.75853877,2.59984152 3.93866839,3.04210643 3.92160898,3.80892156 C3.44165381,3.66177821 3.76552807,3.21095603 3.1760871,3.09365878 C2.79797918,7.57600005 1.58650612,11.9999014 2.74043548,16.6007922 C2.89600716,16.2576665 2.58104453,15.8101837 3.10937715,15.698313 C3.75152407,16.6995139 2.77328122,17.5660944 2.86188833,18.530979 C3.152153,21.6836036 4.13727053,24.737089 4.80869854,27.8323172 C5.50431526,31.0406684 6.86193912,34.1214954 8.08996236,37.2181846 C8.44821006,38.1221248 9.09392164,38.9490496 9.17820024,39.9283355 C8.57882916,39.5962716 8.47927348,39.028987 8.22898386,38.5347523 C6.83113033,35.771588 5.921889,32.8863261 4.92225822,30.0156741 C3.40906269,25.6700405 2.6340051,21.2190063 1.7504802,16.7825821 C1.34207272,14.7317586 1.40470878,12.6368965 1.36829839,10.555392 C1.35964137,10.0626183 1.60840328,9.44879053 1.04722493,8.9837758 C0.634743561,9.21002174 0.767144988,9.51787485 0.760270299,9.77271461 C0.695088058,12.2432619 0.953525458,14.7023299 1.26390496,17.154093 C1.97912728,22.7993885 3.36348604,28.3507627 5.35332671,33.7754476 C7.8799024,40.664261 11.1494538,47.316184 15.776629,53.4707416 C16.1954759,54.0273818 16.537428,54.6643768 17.1080272,55.0916143 C17.8008432,55.6108947 18.5173386,56.0408455 18.5336341,56.8980338 C18.5361803,57.0140787 18.6489761,57.1495341 18.871767,57.138681 C19.6346029,57.1013212 19.7491811,57.096312 19.945237,57.4098004 C20.5596306,58.3926345 21.5556967,59.1719725 22.0903948,60.1996801 C22.3694562,60.736075 22.8595961,61.1674868 23.3135802,61.6262401 C24.540585,62.8662098 26.270206,63.7505309 27.3174503,65.0416355 C28.590541,66.6105385 29.8417344,68.1324808 31.6159136,69.3509529 C34.2669975,71.1715649 37.0380066,72.8360589 40.1871236,74.0401298 C39.5111125,74.4583926 39.8563747,74.7211635 40.408896,74.9653588 C42.3414476,75.8194164 44.2477735,76.7158429 46.2065508,77.527949 C51.2138709,79.6042356 56.6015905,80.8719642 61.8734588,82.3815924 C62.7383966,82.6291272 62.8392254,82.8251096 62.1975877,83.3128741 C61.9819262,83.477132 61.7914718,83.6825066 61.5396545,83.7935424 C58.7505675,85.0262071 55.9927985,86.3133462 53.1438763,87.4462456 C50.2483589,88.5977206 47.3653179,89.2864767 44.4873692,90.4617451 C42.1876582,91.400958 40.2209878,91.6413965 38.0093748,92.7179432 C36.0648561,93.6648785 33.9227538,93.7418939 32.4693935,95.3116317 C32.0314503,95.7843689 32.1763281,96.3992402 31.5405466,96.8008059 C30.945504,97.176491 30.5528829,97.7679864 31.6719295,98.1390799 C32.0836471,98.2757875 31.860347,98.4613343 31.7220893,98.6216266 C31.2327133,99.1870327 31.3562031,99.4324804 32.2410011,99.3531691 C32.633113,99.3178964 33.082514,99.4038866 33.2154246,99.7140355 C33.3750702,100.085964 33.0102024,100.351239 32.6585748,100.565171 C32.2188493,100.828777 31.8901373,100.948161 32.0319596,101.250588 C32.1758188,101.557815 32.5292288,101.436761 32.811091,101.438013 C33.0980457,101.439265 33.3712509,101.563241 33.675265,101.418603 C34.9913861,100.792461 34.4218053,101.6868 34.386668,102.107359 C35.0058993,102.036813 35.5757347,101.670729 36.0587453,101.878191 C37.3478769,102.432118 38.3044772,101.814324 39.3356806,101.398149 C40.113539,101.084451 40.8847773,100.759901 41.659071,100.440151 C41.0594453,100.831699 40.9565796,101.33303 39.8897296,101.553849 C39.5128948,101.632117 38.7370734,101.783017 39.1304584,102.378269 C39.4775029,102.904437 40.0786563,102.73851 40.5789809,102.506211 C41.4627604,102.095879 42.0282673,102.414168 42.9476934,102.073756 L45.9440395,100.242917 C48.380735,98.7539513 51.0320735,97.5200342 53.8267621,96.5403309 C54.3678256,96.3506099 54.9282401,96.1448179 55.5192088,95.905423 C60.139764,94.1616177 61.9753061,93.3394934 66.5808388,91.5153333 C69.6163961,89.4985301 73.3218537,88.2836061 77.1854292,87.493415 C78.2413306,87.277396 79.454586,86.943245 79.623907,85.6970138 C79.6773768,85.3025444 79.865285,84.7473653 80.6869377,84.6809942 C81.3695689,84.6258937 82.8272577,83.0553211 82.741706,82.5034813 C82.6202532,81.7172558 82.5046565,80.925395 81.809549,80.2748336 C79.9622945,78.5468906 78.6405718,76.5090073 76.9611106,74.6804642 Z" id="Fill-1"></path>
                    </g>
                </g>
            </g>
        </g>
    </g>
</svg>