<?xml version="1.0" encoding="UTF-8" standalone="no"?>
<svg width="30px" height="37px" viewBox="0 0 30 37" version="1.1" xmlns="http://www.w3.org/2000/svg" xmlns:xlink="http://www.w3.org/1999/xlink">
    <!-- Generator: sketchtool 44.1 (41455) - http://www.bohemiancoding.com/sketch -->
    <title>CF5CE2BD-3545-4529-8C48-68034DD722C7</title>
    <desc>Created with sketchtool.</desc>
    <defs>
        <polygon id="path-1" points="26.8646029 0 0 0 0 36.5504519 26.8646029 36.5504519 26.8646029 0"></polygon>
    </defs>
    <g id="Page-1" stroke="none" stroke-width="1" fill="none" fill-rule="evenodd">
        <g id="0.Nav.Desktop.5.0.Collapsed" transform="translate(-16.000000, -6.000000)">
            <g id="Nav" transform="translate(0.000000, -74.000000)">
                <g id="Group" transform="translate(16.000000, 80.000000)">
                    <g id="Group-3" transform="translate(2.862708, 0.289611)">
                        <mask id="mask-2" fill="white">
                            <use xlink:href="#path-1"></use>
                        </mask>
                        <g id="Clip-2"></g>
                        <path d="M8.82620481,20.7670356 C9.87968123,22.2308334 11.7075201,24.6111748 12.9704513,26.1231616 C12.7113762,26.4461704 12.4704317,26.7410293 12.2576371,26.998673 C10.2709179,24.9618565 8.56474418,22.3983018 8.17350747,21.7957018 C8.39011902,21.4488371 8.60816191,21.1053122 8.82620481,20.7670356 M4.40666132,26.5163068 C4.18098453,26.9605036 3.97582381,27.3832301 3.794519,27.7806693 C2.31068219,25.8755374 1.36646579,24.0281367 0.950896059,23.1335406 C1.10261956,22.7413496 1.26340831,22.3458188 1.43564789,21.9479025 C1.92946496,22.9555756 2.9170991,24.7605127 4.40666132,26.5163068 M1.93185055,20.8481456 C2.11888078,20.449275 2.31545337,20.0489731 2.51870562,19.648194 C3.04592094,20.8199956 4.04596015,22.7747479 5.50832664,24.4747191 C5.29123798,24.858799 5.08226032,25.2371536 4.88377926,25.6073971 C3.20336986,23.628789 2.21907555,21.5127709 1.93185055,20.8481456 M6.60474368,22.6001227 C6.39576602,22.9460332 6.19108242,23.2909895 5.99117,23.6345144 C4.54741111,21.917844 3.52256177,19.7345523 3.05355483,18.6262073 C3.26730367,18.2321079 3.48677792,17.8370543 3.71102336,17.443432 C4.71106256,19.9001123 6.04937839,21.8443679 6.60474368,22.6001227 M10.7923048,18.2658833 C10.9631975,17.9199842 11.131268,17.591095 11.2948228,17.2817585 C13.1511688,19.3124176 14.8055565,21.5638166 15.380027,22.365592 C15.2202563,22.718181 15.0504031,23.0759626 14.874989,23.4303992 C12.8604748,20.834539 11.2590685,18.8438378 10.7923048,18.2658833 Z M13.5468097,25.3931711 C12.2146964,23.7862379 10.3253094,21.3138127 9.36057691,19.9506868 C9.59913588,19.5918941 9.83530926,19.2421666 10.0690971,18.9043671 C10.7189317,19.7273956 12.3363615,21.792362 14.3059044,24.3959946 C14.049692,24.7395195 13.7949111,25.0739792 13.5468097,25.3931711 M13.3507143,29.0278556 C12.981425,28.7282255 12.6612788,28.459131 12.4060207,28.2396568 C13.2195068,27.2820811 15.2925843,24.7815059 16.6981737,22.5361889 C17.0288165,22.892596 17.3456228,23.2423234 17.6462071,23.5806001 C16.0693323,25.9351771 14.1007437,28.1924221 13.3507143,29.0278556 M15.0941032,30.368557 C14.7314936,30.1051879 14.3860602,29.8437273 14.0644827,29.5937175 C14.8340739,28.733951 16.7086703,26.5773779 18.2655062,24.2891202 C18.5637049,24.6355078 18.8413875,24.9642421 19.0956914,25.2719832 C17.8131984,27.5421103 15.8746682,29.587515 15.0941032,30.368557 M16.9205107,31.610495 C16.5545612,31.3810013 16.1957686,31.1429194 15.8474725,30.9029291 C16.6819517,30.0622473 18.4291576,28.1866967 19.7106964,26.0258295 C20.0570841,26.4580984 20.3352438,26.8159368 20.534202,27.0764432 C19.2789047,29.2043892 17.5980182,30.9482553 16.9205107,31.610495 M26.8331131,1.18754656 C26.8417012,1.18134403 26.8646029,0 26.8646029,0 C22.2189055,3.60939723 14.6413183,11.0381236 11.1068286,15.9643663 C9.97653617,17.3752041 8.50319597,19.5246204 7.12098529,21.7556239 C6.95351689,21.5175421 6.74931041,21.2155264 6.52363363,20.8615049 C9.61583501,15.3326622 16.8451261,6.21207561 22.0323523,2.11744943 L21.468876,1.40368099 C16.3369955,5.4539352 9.24511437,14.3345315 5.98210476,19.9726342 C5.79507453,19.6520109 5.60375023,19.3075318 5.41290306,18.9406281 C8.36483176,13.6145605 13.2071018,7.2622122 17.160501,3.61035147 L16.5431104,2.94238635 C12.6426712,6.54510393 7.92683749,12.633606 4.91622328,17.9281838 C4.69770326,17.4534514 4.48824848,16.9553403 4.2997869,16.4386216 C6.74072229,12.3516293 9.71602978,8.4082495 12.1898863,5.37234803 L11.4899543,4.80219209 C7.5680448,9.61631213 2.39179224,16.6967424 0.000477117942,23.0905999 L0.0147906562,23.0958482 L0,23.1077762 C0.0467575583,23.2251472 1.38507339,26.5716524 3.92524931,29.4162296 C3.99490853,29.5035422 4.04500591,29.5622277 4.04596015,29.5574565 C4.68052701,27.8412633 6.08516224,25.2175917 7.64581503,22.6502201 C7.84238762,22.945079 8.12054738,23.3515834 8.46120959,23.8258387 C6.92775252,25.995294 5.46824874,29.1170767 4.82127681,30.4806797 C4.8184141,30.4873594 5.47683686,31.2249837 5.47922245,31.2206897 C5.95443192,30.2087225 7.46260174,26.9003867 9.03136553,24.5982926 C9.29568887,24.9499286 9.58434522,25.3192178 9.89113206,25.6970953 C8.37389701,27.8092964 6.87956361,30.7497743 6.2755323,32.0470579 C6.27362382,32.0503978 6.96353637,32.726951 6.96496772,32.7255197 C7.41966112,31.7402711 8.95168683,28.6246909 10.4951634,26.4180205 C10.772846,26.7405522 11.0615024,27.0616526 11.3587469,27.3760733 C9.63396549,29.8513612 8.00222213,32.9998625 7.77845381,33.4411966 C7.7779767,33.4421508 7.91586378,33.5671557 8.07140423,33.7079055 L8.06901864,33.7102911 C8.1396321,33.7780418 9.5943647,35.1559585 11.8778512,36.5505742 C11.8840537,36.5543911 12.787238,36.0333784 12.7757871,36.0271758 C10.8663611,34.9116741 9.46649709,33.7379639 8.93498771,33.2670485 C9.08575698,32.9812549 9.26276773,32.6482266 9.46077168,32.2837084 C10.2394282,32.9717125 11.7996038,34.2623166 13.7524476,35.3878378 C13.7572187,35.3897463 14.6484751,34.7556565 14.6413183,34.7523167 C12.5548815,33.5619074 10.6941216,32.0861816 9.92309896,31.4482749 C10.0958157,31.1395796 10.2785518,30.8199106 10.4670134,30.4959475 C11.2843165,31.2035134 13.2099645,32.7899306 15.4944052,34.0929397 C15.5034704,34.0977109 16.2711532,33.4536016 16.2635193,33.4488305 C13.8974914,32.1086062 11.7060887,30.3332503 10.9446085,29.6943894 C11.1426124,29.3675636 11.3453875,29.0421691 11.5510254,28.72584 C12.4470529,29.5483913 14.5549599,31.3747988 17.0345419,32.7670289 C17.0378817,32.7684603 17.6037436,32.2188204 17.7072782,32.1138545 C18.5584566,31.2693557 20.3457404,29.3537272 21.606286,27.0292085 L21.6248936,27.0158492 C21.6053318,26.9872222 19.6152728,24.2538135 16.7306178,21.246062 C16.9147853,20.9607454 17.1213774,20.6558671 17.3460999,20.3361981 C18.1223708,21.1191486 20.2923032,23.3697139 22.2370359,25.9652355 L22.2890418,25.926589 C22.2890418,25.926589 22.7122454,25.0844758 22.694592,25.0620513 C20.6973763,22.4536475 18.5470058,20.2498397 17.8871517,19.5899856 C18.1042403,19.2984665 18.3327798,18.9997907 18.5694303,18.6987293 C19.4358765,19.5761492 21.3462567,21.5590513 23.2141735,23.8320412 C23.2232387,23.8425378 23.5891882,22.8591977 23.5748746,22.8415444 C21.7427417,20.6510959 19.9335105,18.782702 19.1410176,17.9830524 C19.3714656,17.6996443 19.6062076,17.4171905 19.8442895,17.1380765 C21.3233551,18.6300243 21.8114467,19.1949319 23.1616905,20.7589246 C23.3978639,21.0327903 23.6607559,21.3376686 23.9594317,21.683102 C23.96468,21.6878732 24.2728982,20.6544357 24.2657414,20.6468018 C24.118312,20.4759936 23.9804249,20.315682 23.8496946,20.1653898 C23.7375719,20.0346595 23.6316517,19.9125173 23.5300256,19.7946692 C23.8048455,19.4940849 24.2853033,18.9692551 24.8492567,18.3614069 C24.8525965,18.3575899 24.9671048,17.8394399 25.0672996,17.3623219 C25.1436384,16.9935098 25.2132977,16.6366255 25.2113892,16.6390111 C24.2910287,17.6199656 23.39023,18.5994887 22.9302883,19.1028482 C22.5967829,18.7216309 22.3024011,18.3914653 21.986549,18.0493718 C22.5233067,17.4524972 24.2175525,15.5821949 25.6660826,14.1336648 C25.6694224,14.130325 25.8884195,12.6493509 25.8846026,12.6526907 C24.3253812,14.1107631 22.0762472,16.5879595 21.359616,17.3857007 C21.0938613,17.1094494 20.7966169,16.8060024 20.4435496,16.4500724 C22.1411352,14.543032 24.5515351,12.1908405 26.1393836,10.7117749 C26.1460632,10.7055724 26.2925384,9.33576678 26.29063,9.33719813 C24.7404738,10.7384935 21.5194506,13.8297407 19.5036272,16.1399458 C17.9792354,17.8861974 16.5044639,19.8485835 15.6833439,21.2074154 C15.4404908,20.8734329 15.153743,20.4845817 14.8307341,20.0589925 C16.857054,16.7454084 22.6058481,10.7260885 26.4652551,7.48502628 C26.4738433,7.47739239 26.5749923,6.21780102 26.5735609,6.21923238 C22.7680682,9.25990502 16.6390111,15.5573847 14.2381536,19.2903555 C13.9609481,18.9358569 13.6656121,18.5660905 13.3559626,18.1891673 C15.5569076,14.4399745 22.78763,7.59380917 26.691409,4.51496709 C26.6923633,4.51496709 26.75582,3.31692393 26.75582,3.31692393 C23.1449914,6.03554197 15.3818053,13.2090102 12.7385719,17.4520201 C12.4565952,17.1209002 12.1669846,16.7893033 11.8702173,16.4610461 C15.2291276,11.7919699 22.2208139,4.88330214 26.8331131,1.18754656" id="Fill-1" fill="#FEFEFE" mask="url(#mask-2)"></path>
                    </g>
                    <path d="M10.0180454,7.03987524 C5.56748927,12.7132847 1.66323315,20.8090219 1.62458659,20.890132 L2.44475234,21.2837543 C2.48339889,21.2035985 6.34566863,13.1951738 10.7337223,7.60144306 L10.0180454,7.03987524 Z" id="Fill-4" fill="#FEFEFE"></path>
                    <path d="M6.25358487,9.70457895 L5.49258175,9.2059907 C3.19335039,12.7161474 0.568247469,17.8504136 0.541528865,17.9014652 L1.35215225,18.3151265 C1.3774395,18.2640748 3.98107211,13.1727493 6.25358487,9.70457895" id="Fill-6" fill="#FEFEFE"></path>
                    <path d="M0,14.3965568 L0.798695435,14.8331197 C0.810623384,14.8097409 2.06401222,12.5186206 2.7362714,11.3721062" id="Fill-8" fill="#FEFEFE"></path>
                    <path d="M2.7362714,11.290519 L1.9518895,10.8305773 C1.27295067,11.9890197 0.0124050665,14.2915908 0,14.3149696" id="Fill-10" fill="#FEFEFE"></path>
                </g>
            </g>
        </g>
    </g>
</svg>