<svg xmlns="http://www.w3.org/2000/svg" xmlns:xlink="http://www.w3.org/1999/xlink" width="116" height="40" viewBox="0 0 116 40">
    <defs>
        <path id="a" d="M28.759 0H0v39.127h28.759V0z"/>
        <path id="c" d="M0 39.128h115.624V0H0z"/>
    </defs>
    <g fill="none" fill-rule="evenodd">
        <g transform="translate(3.065 .31)">
            <mask id="b" fill="#fff">
                <use xlink:href="#a"/>
            </mask>
            <path fill="#FFF" d="M9.449 22.231c1.127 1.567 3.084 4.115 4.436 5.734-.277.346-.535.661-.763.937-2.127-2.18-3.953-4.924-4.372-5.57.232-.37.465-.739.699-1.1m-4.732 6.154c-.241.475-.46.928-.655 1.353a26.628 26.628 0 0 1-3.044-4.974c.162-.42.334-.844.519-1.27.529 1.08 1.586 3.011 3.18 4.89m-2.649-6.067c.2-.427.41-.855.628-1.284.565 1.254 1.635 3.347 3.2 5.166a62.09 62.09 0 0 0-.668 1.213c-1.799-2.118-2.852-4.383-3.16-5.095m5.002 1.876c-.223.37-.442.74-.656 1.107-1.546-1.838-2.643-4.175-3.145-5.362.229-.421.464-.844.704-1.266 1.07 2.63 2.503 4.712 3.097 5.52m4.483-4.64c.183-.37.363-.722.538-1.053 1.987 2.174 3.758 4.584 4.373 5.443-.17.377-.352.76-.54 1.14a380.564 380.564 0 0 0-4.37-5.53zm2.949 7.63c-1.426-1.72-3.449-4.366-4.481-5.826.255-.384.508-.758.758-1.12.696.881 2.427 3.092 4.536 5.88-.275.367-.547.725-.813 1.067m-.21 3.89c-.395-.32-.738-.608-1.011-.843.87-1.025 3.09-3.702 4.595-6.106.353.382.693.756 1.014 1.118-1.688 2.52-3.795 4.937-4.598 5.832m1.866 1.435a42.307 42.307 0 0 1-1.102-.83c.824-.92 2.83-3.229 4.497-5.678.32.37.617.722.89 1.052-1.374 2.43-3.45 4.62-4.285 5.456m1.956 1.33c-.392-.246-.776-.501-1.15-.758.894-.9 2.765-2.908 4.136-5.221.371.463.669.846.882 1.125-1.344 2.277-3.143 4.144-3.868 4.853M28.725 1.271c.01-.006.034-1.271.034-1.271-4.974 3.864-13.085 11.816-16.87 17.09-1.21 1.51-2.786 3.811-4.266 6.2-.18-.255-.398-.579-.64-.958 3.31-5.918 11.05-15.682 16.603-20.065l-.603-.764C17.489 5.838 9.897 15.345 6.403 21.38a26.06 26.06 0 0 1-.608-1.105c3.16-5.702 8.343-12.502 12.575-16.411l-.66-.715C13.534 7.007 8.486 13.524 5.263 19.192a21.163 21.163 0 0 1-.66-1.594C7.216 13.222 10.4 9 13.049 5.75l-.749-.61C8.102 10.294 2.56 17.874 0 24.719l.016.005-.016.013c.05.126 1.483 3.708 4.202 6.753.075.094.128.157.13.151.679-1.837 2.182-4.645 3.853-7.394.21.316.508.751.873 1.259-1.642 2.322-3.204 5.664-3.897 7.124-.003.007.702.797.705.792.508-1.083 2.123-4.625 3.802-7.09.283.377.592.772.92 1.177-1.624 2.261-3.223 5.409-3.87 6.798-.002.003.737.727.738.726.487-1.055 2.127-4.39 3.78-6.752.296.345.605.689.924 1.025-1.847 2.65-3.594 6.02-3.833 6.493l.313.286-.002.002c.076.073 1.633 1.548 4.077 3.04.007.005.974-.553.962-.56a26.905 26.905 0 0 1-4.112-2.954c.161-.306.35-.663.563-1.053.833.736 2.504 2.118 4.594 3.323.005.002.96-.677.952-.68-2.234-1.275-4.226-2.855-5.051-3.537.185-.33.38-.673.582-1.02.875.758 2.936 2.456 5.382 3.85.01.006.831-.684.823-.689-2.533-1.435-4.879-3.335-5.694-4.019.212-.35.43-.698.65-1.037.959.88 3.215 2.836 5.87 4.326.003.002.609-.587.72-.699.91-.904 2.824-2.955 4.174-5.443l.02-.014c-.021-.031-2.152-2.957-5.24-6.177.197-.305.419-.632.66-.974.83.838 3.153 3.247 5.235 6.026l.056-.041s.453-.902.434-.926c-2.138-2.792-4.44-5.151-5.147-5.858.233-.312.477-.632.73-.954.928.94 2.973 3.062 4.973 5.495.01.012.401-1.041.386-1.06a87.532 87.532 0 0 0-4.746-5.201c.246-.303.498-.606.752-.905 1.584 1.598 2.106 2.202 3.552 3.877.253.293.534.62.854.989.005.005.335-1.101.328-1.11l-.446-.515-.342-.397c.294-.321.809-.883 1.412-1.534a51.868 51.868 0 0 0 .388-1.844c-.985 1.05-1.95 2.099-2.442 2.638a55.072 55.072 0 0 0-1.01-1.128c.574-.639 2.388-2.641 3.939-4.192.003-.003.238-1.589.234-1.585-1.67 1.56-4.077 4.213-4.844 5.067-.285-.296-.603-.621-.981-1.002 1.817-2.042 4.398-4.56 6.097-6.143.008-.007.164-1.473.162-1.471-1.66 1.5-5.107 4.809-7.265 7.282-1.632 1.87-3.21 3.97-4.09 5.425a74.56 74.56 0 0 0-.913-1.23c2.17-3.547 8.324-9.99 12.455-13.46.01-.008.118-1.357.116-1.355-4.074 3.255-10.635 9.996-13.205 13.992-.297-.379-.613-.775-.944-1.178 2.356-4.014 10.096-11.343 14.275-14.639l.07-1.282c-3.866 2.91-12.177 10.59-15.006 15.132-.302-.355-.612-.71-.93-1.061 3.596-4.999 11.08-12.394 16.018-16.35" mask="url(#b)"/>
        </g>
        <path fill="#FFF" d="M10.724 7.536C5.96 13.61 1.781 22.276 1.74 22.363l.878.421c.041-.085 4.176-8.658 8.874-14.647l-.767-.6zM6.695 10.389l-.815-.534C3.419 13.613.608 19.11.58 19.164l.867.442c.028-.054 2.815-5.504 5.248-9.217M0 15.412l.855.467c.013-.025 1.355-2.478 2.074-3.705M2.93 12.087l-.84-.493A199.582 199.582 0 0 0 0 15.324M41.16 9.855h3.634l1.836 5.756h.025l1.923-5.756h3.497v8.658h-2.257l.037-6.648h-.024l-2.209 6.648h-2.121l-2.109-6.648h-.025l.05 6.648h-2.258zM57.675 16.52c1.402 0 1.96-1.34 1.96-2.766 0-1.501-.558-2.767-1.96-2.767-1.401 0-1.96 1.266-1.96 2.767 0 1.426.559 2.766 1.96 2.766m0-7.245c2.854 0 4.342 1.7 4.342 4.479 0 2.754-1.513 4.478-4.342 4.478-2.828 0-4.342-1.724-4.342-4.478 0-2.779 1.49-4.479 4.342-4.479M70.78 15.226c0 2.37-1.539 3.436-3.796 3.436-2.258 0-3.796-1.066-3.796-3.436v-5.37h2.307v4.986c0 1.141.311 2.109 1.489 2.109 1.178 0 1.488-.968 1.488-2.11V9.856h2.308v5.371zM72.464 9.855h2.94l2.927 5.88h.025l-.037-5.88h2.109v8.658h-2.866l-3.027-5.917h-.024l.074 5.917h-2.121zM83.873 11.567H81.74V9.855h6.575v1.712H86.18v6.946h-2.308z"/>
        <mask id="d" fill="#fff">
            <use xlink:href="#c"/>
        </mask>
        <path fill="#FFF" d="M93.333 18.513h2.308V9.855h-2.308zM99.699 16.802h.893c1.725 0 2.692-.893 2.692-2.618 0-1.724-1.005-2.617-2.692-2.617H99.7v5.235zM97.39 9.855h3.151c3.015 0 5.124.943 5.124 4.292 0 3.238-2.171 4.367-5.124 4.367h-3.15V9.855zM110.788 11.641h-.025l-1.116 3.387h2.171l-1.03-3.387zm-1.414-1.786h2.828l3.338 8.658h-2.531l-.645-1.847h-3.25l-.683 1.847h-2.344l3.287-8.658zM48.122 33.536c-.657.161-1.39.348-2.568.348-2.307 0-4.974-1.166-4.974-4.442 0-3.013 2.109-4.514 4.962-4.514.88 0 1.737.197 2.568.446l-.186 1.873c-.745-.41-1.464-.608-2.259-.608-1.637 0-2.704 1.191-2.704 2.803 0 1.7 1.204 2.73 2.89 2.73.758 0 1.527-.2 2.16-.447l.111 1.811zM53.617 32.173c1.402 0 1.96-1.34 1.96-2.767 0-1.501-.558-2.766-1.96-2.766-1.401 0-1.96 1.265-1.96 2.766 0 1.427.559 2.767 1.96 2.767m0-7.245c2.853 0 4.342 1.7 4.342 4.478 0 2.754-1.514 4.479-4.342 4.479-2.828 0-4.342-1.725-4.342-4.479 0-2.779 1.489-4.478 4.342-4.478M59.13 24.928h2.309v6.946h3.572v1.712h-5.88zM66.087 24.928h2.307v6.946h3.573v1.712h-5.88zM73.043 24.928h6.104v1.637h-3.796v1.786h3.585v1.637H75.35v1.96h3.933v1.638h-6.24zM88.324 33.488a12.768 12.768 0 0 1-3.35.397c-2.307 0-4.974-1.166-4.974-4.441 0-3.263 2.294-4.516 5.47-4.516.57 0 1.775.062 2.618.385l-.186 1.885c-.72-.422-1.563-.558-2.109-.558-1.873 0-3.41.782-3.41 2.804 0 1.698 1.202 2.73 2.889 2.73.31 0 .608-.05.819-.15v-1.712h-1.353v-1.638h3.586v4.814zM90.435 24.928h6.103v1.637h-3.796v1.786h3.585v1.637h-3.585v1.96h3.932v1.638h-6.24z" mask="url(#d)"/>
    </g>
</svg>
