<?xml version="1.0" encoding="UTF-8" standalone="no"?>
<svg width="154px" height="53px" viewBox="0 0 154 53" version="1.1" xmlns="http://www.w3.org/2000/svg" xmlns:xlink="http://www.w3.org/1999/xlink">
    <!-- Generator: sketchtool 43.1 (39012) - http://www.bohemiancoding.com/sketch -->
    <title>F94C1745-CD7A-47FC-8D84-8B8F056E4F6E</title>
    <desc>Created with sketchtool.</desc>
    <defs>
        <polygon id="path-1" points="38.4853834 0.265964375 0.380065122 0.265964375 0.380065122 52.1098949 38.4853834 52.1098949 38.4853834 0.265964375"></polygon>
        <polygon id="path-3" points="9.17172878e-21 0.607116134 9.17172878e-21 6.16868161 3.88179404 6.16868161 3.88179404 0.607116134 0 0.607116134"></polygon>
        <polygon id="path-5" points="0 52.5208581 153.202247 52.5208581 153.202247 0.676754134 0 0.676754134"></polygon>
    </defs>
    <g id="Page-1" stroke="none" stroke-width="1" fill="none" fill-rule="evenodd">
        <g id="0.Nav.Desktop.4.0.Footer" transform="translate(-80.000000, -620.000000)">
            <g id="Footer" transform="translate(0.000000, 564.000000)">
                <g id="Bottom-Section" transform="translate(80.000000, 56.050445)">
                    <g id="MIC_Logo">
                        <g id="Group-3" transform="translate(4.060525, 0.410790)">
                            <mask id="mask-2" fill="white">
                                <use xlink:href="#path-1"></use>
                            </mask>
                            <g id="Clip-2"></g>
                            <path d="M12.8993398,29.7221618 C14.393613,31.7984435 16.9862581,35.1747698 18.7776263,37.3194037 C18.4101488,37.7775662 18.0683879,38.1958003 17.7672323,38.5612475 C14.9492281,35.6721841 12.5284786,32.0359842 11.9735402,31.1812437 C12.2807866,30.6892434 12.5900632,30.2019805 12.8993398,29.7221618 M6.63124306,37.8770491 C6.3104616,38.5071072 6.01945732,39.1067114 5.76229075,39.6704476 C3.65758539,36.9681683 2.31896572,34.3477763 1.72883611,33.0788623 C1.94404393,32.5225704 2.17278682,31.9615412 2.41641831,31.3971283 C3.11685884,32.826433 4.51841665,35.3865939 6.63124306,37.8770491 M3.12024261,29.83721 C3.38620698,29.2714435 3.66435293,28.7036468 3.95332695,28.1351733 C4.70046351,29.7972815 6.11961693,32.5699432 8.1931916,34.9812182 C7.88526847,35.5260052 7.58952691,36.0626713 7.30799719,36.5878325 C4.92379238,33.7813331 3.52832535,30.7799285 3.12024261,29.83721 M9.7483726,32.3222512 C9.45263104,32.8128979 9.16162676,33.3021912 8.87806678,33.7894541 C6.83088553,31.3544928 5.37654089,28.2576658 4.71196833,26.685566 C5.01447743,26.1265671 5.32578433,25.5662146 5.64453553,25.0078925 C7.06233544,28.4924995 8.96063079,31.2502726 9.7483726,32.3222512 M21.2499901,33.5849029 C18.5228022,29.8054003 16.3512615,26.9041948 15.7188832,26.0617701 C15.9782561,25.5798981 16.2327863,25.1219988 16.4792717,24.6916284 C19.0102258,27.6620966 21.2439655,30.9354786 22.0186206,32.1004785 C21.7746825,32.5923846 21.516195,33.0911523 21.2499901,33.5849029 M19.5951452,36.2839699 C17.7056477,34.0046619 15.0257013,30.497722 13.6573045,28.5642355 C13.9956815,28.0553164 14.3313516,27.5592556 14.6629611,27.0801136 C15.5840235,28.2475145 17.8788968,31.1765064 20.6725378,34.8695537 C20.3091209,35.3568167 19.9470574,35.8312213 19.5951452,36.2839699 M19.3176761,41.4394829 C18.7931916,41.0144813 18.3390896,40.6327919 17.9770261,40.321485 C19.1308919,38.9632395 22.0713886,35.4163711 24.0651063,32.2315661 C24.5347737,32.7371014 24.9841384,33.2331622 25.4104935,33.7129809 C23.1731444,37.0527626 20.3808568,40.2544864 19.3176761,41.4394829 M21.7898589,43.341162 C21.2755258,42.9675937 20.7862325,42.5967324 20.3294235,42.2421133 C21.4210279,41.0226023 24.0799949,37.9636736 26.2889204,34.7179608 C26.7118917,35.2092843 27.1057626,35.6755679 27.4664726,36.1120743 C25.6466807,39.3320705 22.8977054,42.2333155 21.7898589,43.341162 M24.3804737,45.102753 C23.8620801,44.7772342 23.353161,44.4395339 22.8584537,44.0991266 C24.0420967,42.9066858 26.5203703,40.2463653 28.3388087,37.1813458 C28.8294554,37.7944851 29.2240031,38.3020507 29.5062095,38.6715584 C27.7263462,41.6898819 25.3414646,44.1634182 24.3804737,45.102753 M38.4413944,1.95020239 C38.4528992,1.94140458 38.4853834,0.265761348 38.4853834,0.265761348 C31.8965051,5.38540637 21.1476192,15.9224682 16.1349014,22.9099547 C14.5309941,24.9111166 12.4418541,27.959894 10.4806206,31.1243963 C10.2437566,30.786696 9.95410585,30.3583107 9.6333244,29.8561591 C14.0200447,22.0139322 24.2735466,9.07710017 31.6312175,3.26919619 L30.8319709,2.25677201 C23.5534802,8.00173785 13.49353,20.5981625 8.86520845,28.5953661 C8.60059759,28.1405874 8.32854242,27.6519709 8.05784077,27.131547 C12.2455954,19.5769406 19.1132963,10.566636 24.7208811,5.38675988 L23.8451612,4.43930409 C18.3126962,9.54947456 11.6243351,18.1855341 7.35333972,25.6954747 C7.04338632,25.0221043 6.74696801,24.315573 6.47897338,23.5826483 C9.94124753,17.7855724 14.1621631,12.1921995 17.6704565,7.8860129 L16.6776582,7.07729171 C11.1154159,13.9057409 3.7726336,23.9487723 0.380741876,33.0179544 L0.401721254,33.0253987 L0.380065122,33.0423176 C0.446387027,33.2087991 2.34535913,37.9555526 5.94772138,41.9903607 C6.04652749,42.1142067 6.11758667,42.1974475 6.11961693,42.1906799 C7.01902318,39.7563953 9.01138735,36.0349243 11.2257269,32.3933103 C11.5045496,32.8115444 11.8984205,33.3881389 12.3822997,34.0608325 C10.2065351,37.1380336 8.13634425,41.5660359 7.2193424,43.5001992 C7.21460512,43.5096738 8.14920258,44.5559356 8.15258635,44.5498449 C8.82663347,43.1144493 10.9651765,38.4218362 13.1903441,35.1564975 C13.5659427,35.6552653 13.9747022,36.179073 14.4105318,36.7150622 C12.2577769,39.7110528 10.138183,43.8818885 9.282089,45.721983 C9.27938198,45.7267203 10.2572917,46.6863577 10.259322,46.6843274 C10.9042687,45.2868301 13.0773262,40.8676256 15.2666258,37.7376377 C15.6604967,38.1951235 16.069933,38.6505791 16.4915508,39.09656 C14.0457613,42.6075605 11.7312622,47.073461 11.4131878,47.6994586 C11.412511,47.7008121 11.608093,47.8781217 11.8287148,48.0777642 L11.825331,48.0811479 C11.9254906,48.177247 13.9895908,50.131713 17.2278593,52.1098653 C17.2373338,52.1152793 18.5177527,51.3762638 18.5021873,51.367466 C15.7938173,49.7852148 13.8075439,48.1203997 13.0536398,47.4524433 C13.2674941,47.0470676 13.5185699,46.5746932 13.7994228,46.0576531 C14.9038856,47.0335325 17.1175484,48.8641525 19.887503,50.4606155 C19.8935938,50.4633225 21.1577705,49.5639162 21.1476192,49.559179 C18.1888502,47.8706774 15.5488323,45.7774769 14.4551976,44.8726566 C14.7001826,44.4347967 14.9593794,43.9813714 15.2273741,43.5218553 C16.3866539,44.5254817 19.1173568,46.7756892 22.3576556,48.6239047 C22.370514,48.6306723 23.4594114,47.7170542 23.4485833,47.7102867 C20.0925595,45.8092843 16.9842278,43.2910822 15.904805,42.3849084 C16.1856579,41.9213318 16.4732784,41.4597855 16.7642827,41.0110975 C18.035227,42.1778216 21.0251267,44.7684364 24.542218,46.743205 C24.5469552,46.7452353 25.3502624,45.9656145 25.497118,45.8167286 C26.7044474,44.6188738 29.2388917,41.9017059 31.0268761,38.6045598 L31.0539462,38.5856107 C31.0261993,38.5450054 28.2034578,34.667881 24.1118023,30.4016229 C24.3723527,29.996924 24.6653872,29.5644781 24.9848152,29.1110528 C26.0858941,30.2216063 29.1637719,33.4138556 31.9222218,37.0953981 L31.9953112,37.040581 C31.9953112,37.040581 32.5955922,35.8461099 32.571229,35.8143025 C29.7376595,32.1144876 26.6875286,28.9885603 25.7522544,28.0526093 C26.0601775,27.6391126 26.383666,27.2154645 26.719336,26.7884326 C27.9489983,28.0329835 30.6587218,30.8455736 33.3082143,34.0696303 C33.3203958,34.0845189 33.840143,32.6897287 33.8191636,32.6646888 C31.2211045,29.5577105 28.6548528,26.9075413 27.5300875,25.7733014 C27.8569597,25.3713095 28.1899227,24.970671 28.5276231,24.5747698 C30.6262376,26.69098 31.3178804,27.4922569 33.2330946,29.710657 C33.5680879,30.0991138 33.9409794,30.5315597 34.3646275,31.0215297 C34.3720718,31.0282973 34.8092549,29.5624478 34.7997804,29.5516197 C34.5899866,29.3093418 34.3944046,29.0819524 34.2096508,28.8687748 C34.0499368,28.6833442 33.9003741,28.5100951 33.7562255,28.3429369 C34.1453591,27.9165818 34.8275273,27.1721522 35.6267739,26.3099674 C35.6315112,26.3045534 35.7939322,25.5695984 35.9360506,24.8928443 C36.045008,24.3697133 36.1431373,23.8635012 36.1404303,23.866885 C34.8349716,25.2582915 33.5579365,26.6476678 32.9048688,27.3616434 C32.4324944,26.8209168 32.0142604,26.3526029 31.5662491,25.8673702 C32.3275975,25.0207508 34.7307515,22.3678746 36.785377,20.3132491 C36.7901143,20.3085118 37.1007444,18.2078669 37.0953304,18.2126042 C34.8843746,20.2807649 31.6941557,23.7944723 30.6769942,24.9260052 C30.3000421,24.5341646 29.8784243,24.103749 29.3776263,23.5988904 C31.7861942,20.8939041 35.2044793,17.5575062 37.4567171,15.4595684 C37.4661917,15.4507706 37.6746319,13.5078095 37.6719249,13.5098397 C35.4731507,15.4974666 30.9043836,19.8821567 28.0444206,23.1590002 C25.8821912,25.6359203 23.7903441,28.4194101 22.6256503,30.3468058 C22.2818592,29.873078 21.8744532,29.3215233 21.4162906,28.7178586 C24.2904654,24.0178012 32.444676,15.479871 37.9189402,10.8826802 C37.9317985,10.8718521 38.0752704,9.08522122 38.0732401,9.08725148 C32.6747724,13.4002056 23.9811888,22.3326834 20.575762,27.6276077 C20.1825678,27.1247794 19.763657,26.600295 19.3244436,26.0656592 C22.4469872,20.7477252 32.7025193,11.0369801 38.2403984,6.66988572 C38.2417519,6.66988572 38.3310834,4.97055609 38.3310834,4.97055609 C33.2094082,8.82670114 22.1986184,19.0016995 18.4494005,25.0200741 C18.0494388,24.5504067 17.6379723,24.0800626 17.2170312,23.6144557 C21.9813803,16.9917398 31.8992122,7.19233991 38.4413944,1.95020239" id="Fill-1" fill="#277D0C" mask="url(#mask-2)"></path>
                        </g>
                        <path d="M13.8533601,10.5295499 C7.54059759,18.5768333 2.00271851,30.0599974 1.94790142,30.1750456 L3.11124178,30.7333678 C3.16605886,30.6196731 8.64438358,19.260355 14.8684913,11.3260895 L13.8533601,10.5295499 Z" id="Fill-4" fill="#277D0C"></path>
                        <path d="M9.15803997,13.9529784 L8.07929388,13.2457703 C4.81733895,18.2246505 1.09383771,25.5072017 1.05661623,25.5796144 L2.20574475,26.1663602 C2.24228947,26.0939475 5.93533678,18.8723042 9.15803997,13.9529784" id="Fill-6" fill="#277D0C"></path>
                        <g id="Group-10" transform="translate(0.000000, 15.299381)">
                            <mask id="mask-4" fill="white">
                                <use xlink:href="#path-3"></use>
                            </mask>
                            <g id="Clip-9"></g>
                            <path d="M3.88179404,1.25950712 L2.76921024,0.607116134 C1.80551235,2.25027517 0.0182046862,5.51629062 -6.76754133e-05,5.54945157 L1.13281874,6.16868161 C1.15041435,6.13552065 2.92824746,2.8857473 3.88179404,1.25950712" id="Fill-8" fill="#277D0C" mask="url(#mask-4)"></path>
                        </g>
                        <polygon id="Fill-11" fill="#57B300" points="54.3535083 13.1093367 59.1692907 13.1093367 61.601545 20.735679 61.634706 20.735679 64.1826853 13.1093367 68.8170976 13.1093367 68.8170976 24.5816727 65.8258443 24.5816727 65.8752474 15.7723642 65.8427632 15.7723642 62.9164783 24.5816727 60.1059184 24.5816727 57.3122773 15.7723642 57.2791164 15.7723642 57.3447615 24.5816727 54.3535083 24.5816727"></polygon>
                        <path d="M76.428619,22.5108728 C78.2863091,22.5108728 79.0260014,20.7357467 79.0260014,18.8455724 C79.0260014,16.856592 78.2863091,15.180272 76.428619,15.180272 C74.5716057,15.180272 73.8319134,16.856592 73.8319134,18.8455724 C73.8319134,20.7357467 74.5716057,22.5108728 76.428619,22.5108728 M76.428619,12.9117921 C80.2096444,12.9117921 82.1817059,15.1640299 82.1817059,18.8455724 C82.1817059,22.4946307 80.1764834,24.7793526 76.428619,24.7793526 C72.6814314,24.7793526 70.6755321,22.4946307 70.6755321,18.8455724 C70.6755321,15.1640299 72.6482704,12.9117921 76.428619,12.9117921" id="Fill-13" fill="#57B300"></path>
                        <path d="M93.9512048,20.2264892 C93.9512048,23.3659516 91.9128213,24.7790142 88.921568,24.7790142 C85.9303148,24.7790142 83.8919313,23.3659516 83.8919313,20.2264892 L83.8919313,13.1097427 L86.9488297,13.1097427 L86.9488297,19.7168933 C86.9488297,21.2294388 87.3602962,22.5112111 88.921568,22.5112111 C90.4828398,22.5112111 90.8936296,21.2294388 90.8936296,19.7168933 L90.8936296,13.1097427 L93.9512048,13.1097427 L93.9512048,20.2264892 Z" id="Fill-15" fill="#57B300"></path>
                        <polygon id="Fill-17" fill="#57B300" points="96.2289561 13.1093367 100.124353 13.1093367 104.003508 20.9001302 104.036669 20.9001302 103.987266 13.1093367 106.781583 13.1093367 106.781583 24.5816727 102.984316 24.5816727 98.9738709 16.7414761 98.9413867 16.7414761 99.0395161 24.5816727 96.2289561 24.5816727"></polygon>
                        <polygon id="Fill-19" fill="#57B300" points="111.014139 15.3775458 108.18666 15.3775458 108.18666 13.1097427 116.898516 13.1097427 116.898516 15.3775458 114.071714 15.3775458 114.071714 24.5820788 111.014139 24.5820788"></polygon>
                        <mask id="mask-6" fill="white">
                            <use xlink:href="#path-5"></use>
                        </mask>
                        <g id="Clip-22"></g>
                        <polygon id="Fill-21" fill="#57B300" mask="url(#mask-6)" points="123.886612 24.5817404 126.94351 24.5817404 126.94351 13.1094043 123.886612 13.1094043"></polygon>
                        <path d="M132.401262,22.3139373 L133.584905,22.3139373 C135.869627,22.3139373 137.151399,21.1302943 137.151399,18.8455724 C137.151399,16.5608504 135.820223,15.3778842 133.584905,15.3778842 L132.401262,15.3778842 L132.401262,22.3139373 Z M129.344363,13.1094043 L133.519259,13.1094043 C137.513462,13.1094043 140.307103,14.3586925 140.307103,18.7961693 C140.307103,23.0861138 137.430898,24.5824172 133.519259,24.5824172 L129.344363,24.5824172 L129.344363,13.1094043 Z" id="Fill-23" fill="#57B300" mask="url(#mask-6)"></path>
                        <path d="M146.906877,15.4760135 L146.874393,15.4760135 L145.395009,19.9628934 L148.27189,19.9628934 L146.906877,15.4760135 Z M145.033622,13.1094043 L148.78081,13.1094043 L153.202721,24.5817404 L149.849404,24.5817404 L148.994664,22.133244 L144.688477,22.133244 L143.784334,24.5817404 L140.677356,24.5817404 L145.033622,13.1094043 Z" id="Fill-24" fill="#57B300" mask="url(#mask-6)"></path>
                        <path d="M64.0015182,44.8200051 C63.1305357,45.0331827 62.160747,45.2808747 60.5987984,45.2808747 C57.5419,45.2808747 54.0085667,43.7351682 54.0085667,39.395144 C54.0085667,35.4022946 56.8022078,33.4133142 60.5832331,33.4133142 C61.7499572,33.4133142 62.8841972,33.675218 63.9852761,34.0047973 L63.7389376,36.4864547 C62.7522301,35.9443746 61.7993603,35.6811173 60.7470076,35.6811173 C58.5773338,35.6811173 57.1642712,37.2593079 57.1642712,39.395144 C57.1642712,41.6480585 58.7580272,43.0123948 60.9933461,43.0123948 C61.9962957,43.0123948 63.0154875,42.7484607 63.8539858,42.4202349 L64.0015182,44.8200051 Z" id="Fill-25" fill="#57B300" mask="url(#mask-6)"></path>
                        <path d="M70.7327179,43.0124625 C72.5897312,43.0124625 73.3294235,41.2373364 73.3294235,39.3471621 C73.3294235,37.3575049 72.5897312,35.681185 70.7327179,35.681185 C68.8757045,35.681185 68.1353355,37.3575049 68.1353355,39.3471621 C68.1353355,41.2373364 68.8757045,43.0124625 70.7327179,43.0124625 M70.7327179,33.4127051 C74.5130665,33.4127051 76.4858048,35.6649429 76.4858048,39.3471621 C76.4858048,42.9962204 74.4799055,45.2809423 70.7327179,45.2809423 C66.9848535,45.2809423 64.979631,42.9962204 64.979631,39.3471621 C64.979631,35.6649429 66.9516925,33.4127051 70.7327179,33.4127051" id="Fill-26" fill="#57B300" mask="url(#mask-6)"></path>
                        <polygon id="Fill-27" fill="#57B300" mask="url(#mask-6)" points="78.3746256 33.610588 81.4322007 33.610588 81.4322007 42.815121 86.1654191 42.815121 86.1654191 45.0829241 78.3746256 45.0829241"></polygon>
                        <polygon id="Fill-28" fill="#57B300" mask="url(#mask-6)" points="87.5610215 33.610588 90.6179199 33.610588 90.6179199 42.815121 95.3518151 42.815121 95.3518151 45.0829241 87.5610215 45.0829241"></polygon>
                        <polygon id="Fill-29" fill="#57B300" mask="url(#mask-6)" points="96.707489 33.610588 104.794701 33.610588 104.794701 35.779585 99.7643874 35.779585 99.7643874 38.146871 104.514525 38.146871 104.514525 40.315868 99.7643874 40.315868 99.7643874 42.9132503 104.975394 42.9132503 104.975394 45.0829241 96.707489 45.0829241"></polygon>
                        <path d="M117.343482,44.754563 C115.403905,45.2479167 113.957681,45.2804009 112.905328,45.2804009 C109.84843,45.2804009 106.31442,43.7353713 106.31442,39.3960238 C106.31442,35.0729183 109.355076,33.4121637 113.563133,33.4121637 C114.319068,33.4121637 115.913501,33.4947277 117.031498,33.9231131 L116.78516,36.4210126 C115.830937,35.8613369 114.713616,35.6813203 113.990165,35.6813203 C111.508508,35.6813203 109.470801,36.7167541 109.470801,39.3960238 C109.470801,41.646908 111.064557,43.0125978 113.299876,43.0125978 C113.711343,43.0125978 114.105214,42.9462759 114.384713,42.8149856 L114.384713,40.5471825 L112.593345,40.5471825 L112.593345,38.376832 L117.343482,38.376832 L117.343482,44.754563 Z" id="Fill-30" fill="#57B300" mask="url(#mask-6)"></path>
                        <polygon id="Fill-31" fill="#57B300" mask="url(#mask-6)" points="119.65832 33.610588 127.744855 33.610588 127.744855 35.779585 122.715218 35.779585 122.715218 38.146871 127.465355 38.146871 127.465355 40.315868 122.715218 40.315868 122.715218 42.9132503 127.925548 42.9132503 127.925548 45.0829241 119.65832 45.0829241"></polygon>
                    </g>
                </g>
            </g>
        </g>
    </g>
</svg>