<?xml version="1.0" encoding="UTF-8" standalone="no"?>
<svg width="463px" height="325px" viewBox="0 0 463 325" version="1.1" xmlns="http://www.w3.org/2000/svg" xmlns:xlink="http://www.w3.org/1999/xlink">
    <!-- Generator: Sketch 43.2 (39069) - http://www.bohemiancoding.com/sketch -->
    <title>Fill 1</title>
    <desc>Created with Sketch.</desc>
    <defs></defs>
    <g id="Desktop-Template" stroke="none" stroke-width="1" fill="none" fill-rule="evenodd">
        <g id="1.0_Page_Builder_Master_Desktop" transform="translate(-811.000000, -3954.000000)" fill="#EBEBEB">
            <g id="Full_Width_Content_w_Stat" transform="translate(188.000000, 3825.000000)">
                <g id="Text">
                    <g id="Page-1" transform="translate(623.000000, 129.000000)">
                        <path d="M206.993984,308.062918 C170.875189,304.337339 138.590771,296.886181 108.296966,285.284133 C79.1097157,274.104275 58.855749,261.671892 42.6230576,244.97078 C25.3765182,227.227067 15.9552235,208.166838 13.8207287,186.699887 C12.0622551,169.015484 15.8328497,151.231191 25.688015,130.731924 C39.239609,102.540358 60.2856676,80.2641442 90.0284201,62.6312468 C95.8007525,59.2100198 102.024013,55.6881227 108.87101,52.6805021 C109.61341,55.0638112 111.208719,56.9078712 113.55162,57.9590557 C117.918508,59.9170526 120.824328,56.9266006 122.385521,55.3189985 C122.652518,55.0435211 122.923224,54.7618005 123.208762,54.4972485 C126.000367,51.9086971 129.351182,49.9686491 132.899279,47.9146643 C134.373698,47.0609184 135.89929,46.1775176 137.391508,45.2387093 C149.453851,37.6525444 162.893454,36.9470724 177.122183,36.2002398 L179.384985,36.0808402 C180.285359,36.0324561 181.187216,36.0113855 182.088332,35.990315 C183.642849,35.9528563 185.249283,35.9153977 186.893541,35.7460532 C190.034467,35.422972 192.344735,32.7836952 192.387751,29.470162 C192.420384,26.9198496 191.098748,24.7308575 189.06141,23.6703083 C206.749237,18.664891 221.750032,15.9085558 235.983953,15.0313982 C259.613951,13.5744113 283.38709,16.742792 306.647001,24.4428938 C337.181104,34.5504967 365.047459,50.9488181 389.472516,73.1813304 C412.29559,93.9568558 428.879086,115.836632 440.169362,140.070843 C458.819861,180.103256 451.099933,224.34587 420.021452,255.532569 C403.598154,272.014392 382.816868,284.097941 354.621958,293.560162 C335.58802,299.94921 315.131581,304.494197 293.820008,307.070262 C264.351669,310.631959 235.139203,310.965966 206.993984,308.062918 M455.993399,145.325985 C448.05913,123.203508 435.082322,102.598887 415.154685,80.4818728 C383.07719,44.8828517 343.801894,20.3107322 298.418294,7.44835486 C268.779374,-0.952536524 238.224505,-2.12858328 207.59992,3.95377134 C186.841625,8.07656829 167.066028,14.401624 148.821957,22.7541312 C147.220715,23.4876972 145.64914,24.293059 144.129481,25.0711072 C141.020446,26.6646623 138.083476,28.1692529 135.070857,29.0097323 C119.620616,33.3229442 106.315994,38.3931339 94.3967919,44.510606 C52.8290276,65.8448901 25.0457383,95.3272195 9.45829026,134.641674 C1.72797808,154.140483 -0.915294746,172.108167 1.37791501,189.57094 C4.90821204,216.455353 17.6899639,240.105833 39.3649494,259.866071 C59.3623021,278.095967 83.7636262,291.680204 116.15781,302.61658 C158.748322,316.995254 201.627339,324.272385 243.718715,324.271605 C245.77756,324.271605 247.837148,324.254436 249.893026,324.219319 C273.062455,323.826002 297.709268,322.981621 321.916277,317.473633 C342.725747,312.73823 358.047681,308.276744 371.640808,302.990387 C390.549405,295.348814 406.706447,285.952146 421.0353,274.263474 C439.504835,259.196497 452.598825,238.99846 458.900702,215.852112 C465.222604,192.63865 464.216173,168.251483 455.993399,145.325985" id="Fill-1"></path>
                    </g>
                </g>
            </g>
        </g>
    </g>
</svg>