<?xml version="1.0" encoding="UTF-8" standalone="no"?>
<svg width="317px" height="22px" viewBox="0 0 317 22" version="1.1" xmlns="http://www.w3.org/2000/svg" xmlns:xlink="http://www.w3.org/1999/xlink">
    <!-- Generator: sketchtool 44.1 (41455) - http://www.bohemiancoding.com/sketch -->
    <title>29D154CD-A5E4-4D1A-B89C-7115C6908CA3</title>
    <desc>Created with sketchtool.</desc>
    <defs></defs>
    <g id="Desktop-Template" stroke="none" stroke-width="1" fill="none" fill-rule="evenodd">
        <g id="1.0_Page_Builder_Master_Desktop" transform="translate(-137.000000, -2179.000000)" fill="#EBEBEB">
            <g id="Stacked_Promo" transform="translate(0.000000, 2024.000000)">
                <g id="Visit-Section" transform="translate(119.000000, 64.000000)">
                    <path d="M327.21117,97.9194039 C328.839081,98.036505 331.079791,97.7914814 331.817813,98.5555377 C332.892874,99.6689653 334.043869,101.8707 333.505007,102.223163 C331.556042,103.500841 332.096237,104.278424 333.682851,105.265088 C333.736804,105.298711 333.692843,105.445958 333.681519,105.446344 C329.299346,105.642286 335.312761,107.664697 332.158849,108.378125 C331.227662,108.589139 333.87535,108.430299 333.975263,109.250007 C332.867563,109.697156 331.468119,108.926143 330.180576,109.52904 C332.095571,110.309715 331.405507,111.107781 330.524942,112.207296 C329.465201,113.530191 329.552458,115.093473 326.45916,115.718013 C325.374773,115.937142 324.490879,116.080524 323.377185,116.017142 C314.356396,115.503907 305.338938,114.962845 296.306825,114.530769 C280.1909,113.760142 264.035675,113.229129 247.951721,112.282658 C231.298265,111.302563 214.610172,110.66411 197.918749,110.039571 C178.357831,109.307205 158.790253,108.475903 139.202693,108.171749 C119.156866,107.860638 99.0977167,107.652716 79.0219158,107.799189 C63.8724793,107.909334 48.6684238,108.701989 33.5136586,107.595905 C31.7325474,107.46605 30.3797288,107.281702 29.7669307,106.156681 C29.5371313,105.735039 28.9489783,105.322286 27.8379486,105.274364 C26.2713167,105.207117 25.19892,104.78393 25.2422155,103.674754 C25.2741876,102.83147 23.7994754,102.866253 22.6418198,102.741036 C23.7208774,101.667029 25.9169595,102.213114 27.2471312,101.29331 C24.1911334,101.422778 21.7505981,100.546645 18.8158277,100.425679 C19.9368487,98.9779523 22.6371572,99.5719606 24.3070322,98.7862619 C24.1951299,98.150128 23.0268169,98.501818 22.581206,98.1907076 C23.7861537,97.332352 25.7004819,97.1240433 27.2584547,96.5652039 C26.8348246,95.8788286 25.5606041,96.3862671 24.8772009,95.8502296 C25.842358,94.8747728 27.9784925,95.2643372 29.6044059,94.6757394 C27.1365611,94.0805716 25.3774307,92.8709124 21.7832362,93.5592201 C27.5408747,90.9976798 33.3564626,90.8813515 39.1260905,91.3431863 C42.4671728,91.6106253 45.761629,91.5669539 49.0081271,91.4533309 C59.2884825,91.092752 69.5708362,90.832656 79.8591846,90.5733329 C94.7914774,90.1976815 109.717109,89.7969094 124.664056,89.9534308 C133.291189,90.0442519 141.891012,90.5010625 150.501492,90.7978734 C165.77149,91.3230897 181.068797,91.5762292 196.345456,92.0438611 C213.036879,92.5551643 229.722974,93.137965 246.402407,93.7706206 C258.545803,94.2316824 270.665885,94.9188307 282.813942,95.3246269 C290.647101,95.5862688 298.413652,96.2668471 306.280116,96.3514846 C310.098781,96.3920642 313.906122,96.9945749 317.702141,97.3938011 C318.785195,97.5074241 319.818293,97.5244289 320.907342,97.5337042 C322.610521,97.5480037 324.678715,97.2175696 325.24089,99.0440391 C325.732461,100.640944 328.665233,100.336017 330.963892,100.102588 C329.750286,99.313024 327.114587,99.5835548 327.21117,97.9194039 Z" id="Fill-1" transform="translate(176.395545, 102.975431) rotate(-2.000000) translate(-176.395545, -102.975431) "></path>
                </g>
            </g>
        </g>
    </g>
</svg>