<?xml version="1.0" encoding="UTF-8" standalone="no"?>
<svg width="145px" height="367px" viewBox="0 0 145 367" version="1.1" xmlns="http://www.w3.org/2000/svg" xmlns:xlink="http://www.w3.org/1999/xlink">
    <!-- Generator: sketchtool 44.1 (41455) - http://www.bohemiancoding.com/sketch -->
    <title>15DF32D9-FF3D-4169-8B29-0D7362A9FC52</title>
    <desc>Created with sketchtool.</desc>
    <defs></defs>
    <g id="Desktop-Template" stroke="none" stroke-width="1" fill="none" fill-rule="evenodd">
        <g id="1.0_Page_Builder_Master_Desktop" transform="translate(-1111.000000, -992.000000)" fill="#D7D7D7">
            <g id="Hero_Small_Image" transform="translate(183.000000, 940.000000)">
                <g id="Page-1" transform="translate(928.448819, 52.000000)">
                    <path d="M68.9160048,353.387428 C68.8004622,353.587852 68.6844279,353.788276 68.5693769,353.988699 C71.7893282,355.277069 69.9868635,356.693461 73.5357425,357.397821 C70.5793267,355.639079 71.8724206,355.146171 68.9160048,353.387428 M29.9653615,327.107941 C29.8154019,327.372615 29.664459,327.63729 29.5140078,327.902444 C36.4475478,331.698029 43.3805961,335.494093 50.3141361,339.290158 C50.4645873,339.012537 50.6140552,338.734917 50.7645065,338.457776 C44.2960869,333.823575 37.2597878,330.229853 29.9653615,327.107941 M6.09966651,318.197714 C7.60122877,318.401015 8.89137265,318.388548 9.12245787,317.287176 C9.45138556,315.718309 8.43018555,314.554605 7.24575087,313.83586 C8.31316793,310.874575 10.6672872,313.333842 12.3050422,312.516324 C12.0198732,311.348304 11.0296485,311.506533 10.3914599,311.12007 C9.91847271,310.833339 9.03100712,310.358652 9.07968252,310.208574 C10.3845765,306.160301 6.18177551,306.772601 4.91670684,304.834532 C5.88578976,304.225109 6.85438101,303.565341 7.86623927,302.988044 C10.8575637,301.281565 13.547494,301.692482 16.3908256,303.544244 C20.7406361,306.377507 25.3072734,308.86746 29.8124519,311.447557 C35.4307728,314.664886 41.1371028,317.726383 46.7023233,321.034813 C54.3143688,325.559691 61.8595471,330.201563 69.3767002,334.888506 C78.4027906,340.517154 83.1297126,344.964356 92.1031942,350.680269 C93.7837246,351.750474 95.379196,352.967881 96.9535255,354.197754 C97.5636888,354.67388 98.5308051,355.157199 97.2347612,356.213499 C96.5793641,356.747163 97.2441029,357.603519 97.7342986,358.114168 C98.3867456,358.794075 96.7322737,359.222253 97.7996908,360.160601 C95.2144863,360.127516 96.1147353,358.679958 94.0797104,358.235478 C95.701732,360.278074 93.5929564,363.177506 96.4746383,364.244834 C94.9868428,364.234765 96.1934026,363.665619 94.9627509,363.070102 C93.1519278,362.193607 91.3814217,361.387597 89.2431459,362.058393 C87.5267235,362.597332 86.5517405,360.4574 84.5899745,361.06059 L93.0324518,366.227975 C88.5095732,366.453331 85.344689,363.026948 81.2357971,362.22765 C82.6744255,364.450532 85.4430231,364.676369 86.8614931,366.925142 C84.5875161,365.631978 82.3105892,364.344087 80.0454624,363.035099 C79.8542025,362.925298 79.5754252,362.581029 79.6177089,362.503353 C81.2421888,359.522409 78.0414127,360.758515 77.5217167,359.520491 C76.8245277,360.677483 78.5561919,360.597889 77.8850614,361.748168 C75.9798375,360.722075 73.8789287,359.92038 72.1600479,358.597966 C68.297483,355.627092 68.0762312,355.130348 63.8694969,352.8389 C59.809772,350.627526 55.526337,348.777682 51.9307493,345.746392 C50.9311828,344.903941 49.3160446,344.165538 51.978933,342.983613 C51.4725122,342.759694 51.1784932,342.527625 51.072784,342.598588 C48.791432,344.124302 46.8449078,342.848399 45.000651,341.821347 C42.2379535,340.283646 39.6060403,338.505244 37.0390276,336.60889 C38.8832844,336.59115 40.0554273,338.038708 41.611565,338.615046 C42.1587945,338.817867 42.9248174,339.619083 43.2424367,338.751699 C43.606273,337.759649 42.4542886,338.038708 41.9424594,337.875684 C38.7072663,336.843837 36.8187592,333.925705 34.1760292,332.055243 C32.0657787,330.562134 30.0253453,329.040736 27.5532251,328.318155 C24.8859117,327.539475 22.8720286,325.553938 20.3463162,324.537914 C19.7056693,324.279952 19.2061319,323.654227 17.7498034,323.861843 C23.6198597,328.345486 29.5705499,331.781459 35.6387495,335.040503 C35.4853483,335.295108 35.3309637,335.549713 35.1775624,335.804318 C33.488182,334.954196 31.7624179,334.17168 30.1177794,333.240045 C25.8102526,330.801876 21.5233759,328.324388 17.2655077,325.797994 C16.3923006,325.280153 15.6724947,324.491404 14.8946717,323.812456 C14.4738016,323.445173 14.1114403,322.886096 13.4914436,322.987746 C9.93027281,323.571756 8.36626836,320.912545 6.09966651,318.197714" id="Fill-1"></path>
                    <path d="M37.3593019,154.98981 C38.9891902,154.029406 37.7782053,152.146957 39.7537382,151.318891 C38.0456742,150.97654 36.9281067,151.266627 35.7574388,151.663639 C37.9930654,144.819982 42.8488051,141.134679 49.2803493,138.062153 C57.4715829,134.149575 66.1426871,132.183216 74.742499,129.832313 C82.6805222,127.662174 90.7444131,125.931241 98.8078123,124.211337 C103.969863,123.110445 108.974087,121.316221 114.06632,119.88976 C116.48829,119.210812 118.800126,118.082589 121.14392,117.469331 C123.704049,116.799494 126.536072,116.713666 129.223544,116.185276 C130.013659,116.029924 130.510738,116.673869 130.827866,117.092937 C131.33232,117.758459 129.813549,117.427616 130.09036,118.345825 C132.382528,117.890796 133.904741,118.822431 134.656505,121.046272 C134.727798,121.258683 135.546921,121.17765 135.976149,121.340195 C136.71513,121.620213 137.148784,122.045034 136.944741,122.979546 C136.581888,124.639515 136.813465,126.000766 138.775722,126.779926 C140.377585,127.416199 140.574254,129.592092 139.643029,131.101024 C138.171951,133.485012 135.686555,134.400824 133.290644,135.229849 C125.652048,137.872278 117.778926,139.716369 109.827136,141.228178 C98.5565686,143.371465 87.3007517,145.543522 76.1835858,148.409869 C67.8659929,150.554116 59.8620858,153.556637 51.7101858,156.152556 C50.9426879,156.397092 50.2454989,156.844929 49.5016011,157.167621 C48.0821479,157.783276 46.7570954,158.35482 45.1635907,157.291807 C43.8675468,156.427299 41.7253376,157.813484 40.7061043,156.381269 C39.8727225,155.210852 38.8308723,155.394494 37.3593019,154.98981" id="Fill-3"></path>
                    <path d="M7.43750244,73.4874348 C7.9798152,72.1266629 8.44739402,70.9519303 8.92677294,69.7489083 C8.6406206,69.7215778 8.43067722,69.6376683 8.32545969,69.7023985 C7.26050099,70.3549744 5.89021479,71.709513 4.95407381,70.6661587 C4.03317462,69.6395862 5.91086496,68.7616534 6.70294644,68.0352372 C8.2197505,66.6442579 9.41500193,65.0782674 10.8206884,63.2624665 C8.13370813,62.9786127 6.68868799,64.5470006 4.98357405,65.5548732 C4.29671011,65.9605156 3.78930596,67.097369 2.99181611,65.3223241 C2.40525299,64.0166927 1.52712914,66.2055312 0,65.712623 C2.35362756,64.3053413 0.78372307,60.8334072 4.31047689,60.0269173 C5.01848267,59.8643727 4.38324415,58.0183643 5.548012,57.6544369 C8.56391997,56.7122535 9.48137747,53.8075473 11.7101207,52.1399065 C18.2291823,47.2621291 24.7054685,42.3344856 31.2274802,37.4595851 C40.4556472,30.5627061 49.6715225,23.6500041 58.9699985,16.8346372 C63.5351608,13.488807 67.9424968,9.97899372 72.3036158,6.41260148 C72.9609795,5.8746219 73.6389934,5.32753215 73.8459867,4.45487366 C74.0003713,3.80757203 74.569726,3.55104879 74.9738793,4.07656182 C76.6273678,6.22608271 77.2222893,4.10341285 77.5581004,3.35877623 C78.3560819,1.59236201 79.7248931,0.673193695 81.4319737,0 C82.451207,0.817038502 80.450599,1.689697 81.6006167,2.16438486 C82.5121742,2.54029928 83.4448735,2.01047091 84.1184623,1.28597257 C84.9567608,0.384065634 85.5826576,1.1991862 86.1308704,1.59619787 C87.060128,2.27083001 86.0890784,2.49139205 85.6721417,2.81168649 C84.9498774,3.36740692 84.7807427,4.09430268 85.2497966,4.7890731 C85.7660508,5.55288902 86.5537072,5.5562454 87.3069467,5.00627875 C87.8635179,4.59967743 88.4820396,4.56563416 89.0381192,4.87969532 C89.626649,5.21197683 89.340005,5.73509244 89.1585785,6.19395737 C88.9663353,6.67967334 88.0646112,7.13134603 88.7844171,7.6582975 C89.4580059,8.15120571 90.3277714,8.33053223 91.2786625,8.10805227 C92.0550105,7.92728729 92.9631263,6.58569473 93.6706404,8.00544297 C94.2871954,9.24346727 95.4981803,10.345798 94.3112873,12.0589896 C91.3632298,16.3120011 87.1161785,19.3231524 82.9448444,22.2767657 C70.8885876,30.8144345 59.0427658,39.608147 46.7824656,47.9055949 C39.5386814,52.8083054 32.9729111,58.5736053 25.9125201,63.7246878 C22.3066073,66.3551298 18.7690367,69.049343 15.2850582,71.8111633 C14.0121228,72.8204744 12.6285615,73.4879143 10.9175475,72.9614423 C9.74442129,72.6003918 8.77189667,73.426061 7.43750244,73.4874348" id="Fill-5"></path>
                    <path d="M71.9509896,226.10165 C82.5548512,228.079996 92.9708946,230.887846 103.78175,231.952298 C93.2894973,229.480565 82.9865381,226.172614 71.9509896,226.10165 M47.8822346,226.409478 C43.7649843,226.486195 40.0838459,224.902943 35.7743523,224.319892 C37.9190198,223.512923 39.8380105,223.783831 41.6980007,223.690811 C43.3962312,223.605943 43.5629076,223.531143 44.7050586,221.713904 C45.0256279,221.203255 45.5772824,221.241614 46.0822282,221.219557 C48.0695611,221.131812 49.968885,220.958239 52.0334102,221.494301 C53.8717668,221.971386 56.0056176,221.120784 58.1060348,221.508206 C68.8318307,223.48751 79.7105363,224.744714 90.2789977,227.478724 C99.0179524,229.739006 107.962917,231.307873 116.941316,232.531992 C122.549803,233.296767 128.096832,234.355945 133.712694,235.052153 C134.348424,235.131268 134.918271,235.242988 135.364708,235.93584 C134.05588,236.080644 133.757436,237.322504 132.492368,237.685952 C133.503734,238.751362 134.649819,238.909112 135.874079,238.937881 C137.093422,238.96713 137.66376,239.784168 137.607218,240.677444 C137.533959,241.843546 136.320024,241.243713 135.718219,241.228849 C134.594751,241.201519 133.495867,241.813339 132.367483,241.237001 C134.790436,243.537079 138.113639,241.940881 141.173305,243.114175 C138.857536,243.311722 140.651643,245.494327 138.811811,245.97381 C141.170355,245.904765 142.128621,248.113741 144.304756,248.090726 C143.922236,248.725561 142.95807,248.435474 142.962003,249.41266 C142.972328,252.391206 141.697426,253.354008 138.500583,253.053372 C138.340299,253.038508 138.116589,252.901855 138.037921,252.956996 C133.58191,256.102882 128.987739,253.382297 124.738229,252.797808 C107.932434,250.485742 91.671409,245.814622 75.0494982,242.650516 C66.3287353,240.990067 57.6704145,239.045765 48.6885745,238.602243 C45.5335237,238.446891 42.4114149,237.339765 39.5189162,235.983788 C38.8954778,235.691304 38.4170822,235.150447 38.7509266,234.64747 C39.935853,232.863315 38.311373,231.952298 37.3472068,231.006278 C36.7286851,230.399733 36.427291,229.80949 36.5162834,229.140611 C36.6352677,228.244938 37.6648261,228.362411 38.3615234,228.086229 C41.4118484,226.877933 44.788151,227.537221 47.8822346,226.409478" id="Fill-7"></path>
                </g>
            </g>
        </g>
    </g>
</svg>