<?xml version="1.0" encoding="UTF-8" standalone="no"?>
<svg width="328px" height="28px" viewBox="0 0 328 28" version="1.1" xmlns="http://www.w3.org/2000/svg" xmlns:xlink="http://www.w3.org/1999/xlink">
    <!-- Generator: sketchtool 44.1 (41455) - http://www.bohemiancoding.com/sketch -->
    <title>08F57D41-2D85-4FE0-9FF1-B5D9A6CC0164</title>
    <desc>Created with sketchtool.</desc>
    <defs></defs>
    <g id="Desktop-Template" stroke="none" stroke-width="1" fill="none" fill-rule="evenodd">
        <g id="1.0_School-Landing_SSH" transform="translate(-549.000000, -360.000000)" fill="#EC693E">
            <g id="Full_Width_Hero" transform="translate(-119.000000, 103.000000)">
                <g id="Page-1" transform="translate(668.000000, 257.000000)">
                    <path d="M324.320993,7.32210769 C323.015396,6.35664615 320.291787,6.76910769 320.297479,4.66264615 C321.99511,4.76710769 324.309609,4.39718462 325.120715,5.3438 C326.300377,6.72226154 327.622338,9.47487692 327.083023,9.93526154 C325.129964,11.6023385 325.73616,12.5710308 327.440906,13.7761077 C327.498537,13.8175692 327.460828,14.0044154 327.449444,14.0054923 C322.907249,14.3700308 329.271587,16.7661846 326.034277,17.7526462 C325.078025,18.0439538 327.820134,17.7725692 327.971682,18.8064154 C326.846095,19.4008769 325.347682,18.4639538 324.04422,19.2603385 C326.07839,20.1961846 325.406737,21.2235692 324.554364,22.6370308 C323.529097,24.3385692 323.709105,26.3120308 320.530138,27.1848769 C319.415934,27.4907231 318.50593,27.6958769 317.345479,27.6458 C307.943049,27.2381846 298.542754,26.7966462 289.132498,26.4924154 C272.343309,25.9501846 255.526372,25.7121846 238.760663,24.9464923 C221.401565,24.1544154 204.02468,23.7947231 186.645661,23.4528 C166.279066,23.0516462 145.899665,22.5250308 125.530936,22.6661077 C104.68337,22.8104154 83.8301119,23.0850308 62.9775653,23.8087231 C47.2428148,24.3547231 31.4895653,25.7644154 15.6801076,24.7725692 C13.8223896,24.6557231 12.4065111,24.4591846 11.7049753,23.0532615 C11.442433,22.5266462 10.8077779,22.0199538 9.65088416,21.9892615 C8.01871063,21.9467231 6.88102733,21.4405692 6.86181692,20.0368 C6.84758698,18.9690308 5.31786898,19.0535692 4.10761302,18.9259538 C5.16774317,17.5394154 7.48081909,18.1704923 8.81060651,16.9724154 C5.6423115,17.2179538 3.05673232,16.1760308 0.000142299349,16.1017231 C1.08232885,14.2408 3.92262386,14.9198 5.61242863,13.8816462 C5.46016833,13.0804154 4.26627679,13.5564154 3.78530499,13.1746462 C4.98844599,12.0573385 6.96569544,11.7423385 8.55233319,10.9944154 C8.07349588,10.1377231 6.7778603,10.8134923 6.03719219,10.1544154 C6.98490586,8.89495385 9.2268321,9.33056923 10.882485,8.5428 C8.28409892,7.8568 6.38724859,6.37441538 2.69244599,7.34095385 C8.5288538,3.94810769 14.5651922,3.64495385 20.5858777,4.07410769 C24.0729232,4.32287692 27.4937996,4.17964615 30.8606022,3.94810769 C41.5216694,3.21687692 52.1905631,2.61164615 62.8658603,2.00856923 C78.3601249,1.13303077 93.8458516,0.226261538 109.386364,0.0238 C118.355492,-0.0930461538 127.316793,0.254261538 136.280941,0.398030769 C152.177201,0.652723077 168.085557,0.562261538 183.985374,0.743723077 C201.35799,0.942415385 218.729184,1.23156923 236.096108,1.58426154 C248.740828,1.84164615 261.372741,2.38549231 274.018173,2.57287692 C282.172637,2.69349231 290.280854,3.34556923 298.46022,3.24164615 C302.429661,3.19103077 306.419734,3.85064615 310.387752,4.25341538 C311.51832,4.36810769 312.593392,4.36164615 313.725383,4.34387692 C315.496298,4.31641538 317.62652,3.84364615 318.314537,6.13749231 C318.916463,8.14272308 321.946016,7.67910769 324.320993,7.32210769" id="Fill-1"></path>
                </g>
            </g>
        </g>
    </g>
</svg>