<?xml version="1.0" encoding="UTF-8" standalone="no"?>
<svg width="445px" height="27px" viewBox="0 0 445 27" version="1.1" xmlns="http://www.w3.org/2000/svg" xmlns:xlink="http://www.w3.org/1999/xlink">
    <!-- Generator: sketchtool 44.1 (41455) - http://www.bohemiancoding.com/sketch -->
    <title>0E167315-89F4-48B4-8D56-335CBC2CE76E</title>
    <desc>Created with sketchtool.</desc>
    <defs></defs>
    <g id="Desktop-Template" stroke="none" stroke-width="1" fill="none" fill-rule="evenodd">
        <g id="1.1_School-Landing_D" transform="translate(-496.000000, -317.000000)" fill="#CB1A7E">
            <g id="Full_Width_Hero" transform="translate(-119.000000, 103.000000)">
                <path d="M1054.54313,221.060426 C1052.77553,220.129445 1049.08813,220.527176 1049.09584,218.495945 C1051.3942,218.596676 1054.52771,218.239964 1055.62584,219.152772 C1057.22294,220.482003 1059.0127,223.13631 1058.28254,223.580253 C1055.63836,225.187791 1056.45907,226.121887 1058.76706,227.283926 C1058.84509,227.323907 1058.79403,227.50408 1058.77862,227.505118 C1052.62911,227.856637 1061.24555,230.167214 1056.86268,231.118445 C1055.56804,231.399349 1059.28049,231.137657 1059.48566,232.13458 C1057.96177,232.70781 1055.93312,231.804349 1054.16841,232.572291 C1056.9224,233.474714 1056.01308,234.465407 1054.85908,235.828387 C1053.47101,237.469157 1053.71471,239.372137 1049.41083,240.21381 C1047.90235,240.508733 1046.67033,240.70656 1045.09923,240.658272 C1032.36963,240.265214 1019.64291,239.839445 1006.90271,239.54608 C984.172441,239.023214 961.404605,238.793714 938.706124,238.055368 C915.204276,237.29158 891.678347,236.944733 868.149528,236.615022 C840.575941,236.228195 812.985014,235.720387 785.408537,235.856426 C757.183779,235.99558 728.951316,236.260387 700.719815,236.958233 C679.417112,237.484733 658.089363,238.84408 636.685517,237.887657 C634.17042,237.774983 632.253514,237.585464 631.30373,236.229753 C630.948284,235.721945 630.089047,235.233349 628.522771,235.203753 C626.313031,235.162733 624.772763,234.674657 624.746755,233.321022 C624.72749,232.291387 622.656461,232.372907 621.017939,232.249849 C622.453211,230.91283 625.5848,231.521368 627.38515,230.36608 C623.095711,230.602849 619.59519,229.598137 615.456985,229.526483 C616.922118,227.732022 620.767489,228.386772 623.055254,227.385695 C622.849114,226.61308 621.232748,227.07208 620.581578,226.703945 C622.210467,225.626541 624.887393,225.322791 627.035483,224.60158 C626.387203,223.775483 624.633089,224.427118 623.630326,223.79158 C624.913401,222.577099 627.948663,222.997157 630.190191,222.237522 C626.672331,221.576022 624.104254,220.14658 619.101996,221.078599 C627.003695,217.806926 635.176073,217.514599 643.327259,217.928426 C648.048243,218.16831 652.679642,218.030195 657.237833,217.806926 C671.671462,217.10181 686.115687,216.518195 700.568582,215.936657 C721.5457,215.092387 742.511259,214.218003 763.55099,214.022772 C775.693965,213.910099 787.826343,214.245003 799.962575,214.383637 C821.48394,214.629233 843.021682,214.542003 864.547864,214.716983 C888.068013,214.90858 911.586236,215.187407 935.09868,215.527503 C952.217904,215.775695 969.31979,216.300118 986.439977,216.48081 C997.480008,216.597118 1008.45743,217.225907 1019.53117,217.125695 C1024.90525,217.076887 1030.30727,217.712945 1035.67942,218.10133 C1037.21006,218.211926 1038.66556,218.205695 1040.19812,218.18856 C1042.5957,218.16208 1045.47972,217.706195 1046.41121,219.918118 C1047.22613,221.851733 1051.32773,221.404676 1054.54313,221.060426" id="Fill-1"></path>
            </g>
        </g>
    </g>
</svg>