<?xml version="1.0" encoding="UTF-8" standalone="no"?>
<svg width="661px" height="27px" viewBox="0 0 661 27" version="1.1" xmlns="http://www.w3.org/2000/svg" xmlns:xlink="http://www.w3.org/1999/xlink">
    <!-- Generator: sketchtool 44.1 (41455) - http://www.bohemiancoding.com/sketch -->
    <title>38BFD30F-FB46-48CD-9D22-6A194715FD62</title>
    <desc>Created with sketchtool.</desc>
    <defs></defs>
    <g id="Desktop-Template" stroke="none" stroke-width="1" fill="none" fill-rule="evenodd">
        <g id="2.0_School-Landing_AS" transform="translate(-385.000000, -317.000000)" fill="#754DA8">
            <g id="Page-1" transform="translate(385.000000, 317.000000)">
                <path d="M653.585616,7.06042573 C650.954521,6.12944496 645.465783,6.52717573 645.477254,4.49594496 C648.898395,4.59667573 653.562675,4.23996419 655.197252,5.15277188 C657.574557,6.48200265 660.238631,9.13631035 659.151781,9.58025265 C655.215892,11.1877911 656.437523,12.1218873 659.873002,13.2839257 C659.989143,13.3239065 659.91315,13.5040796 659.890208,13.505118 C650.736577,13.8566373 663.562271,16.1672142 657.038302,17.118445 C655.111221,17.3993488 660.637239,17.1376565 660.942646,18.1345796 C658.674312,18.7078103 655.654646,17.8043488 653.027852,18.5722911 C657.1272,19.4747142 655.773655,20.4654065 654.055915,21.8283873 C651.989753,23.4691565 652.352514,25.3721373 645.946119,26.2138103 C643.700727,26.5087334 641.866846,26.7065603 639.528254,26.6582719 C620.580065,26.2652142 601.636178,25.839445 582.672217,25.5460796 C548.837907,25.0232142 514.947677,24.7937142 481.160683,24.055368 C446.177868,23.2915796 411.159206,22.9447334 376.136243,22.6150219 C335.092588,22.228195 294.023124,21.7203873 252.975167,21.8564257 C210.962236,21.9955796 168.937835,22.2603873 126.914868,22.9582334 C95.2055076,23.4847334 63.4588677,24.8440796 31.5989544,23.8876565 C27.8551996,23.7749834 25.001859,23.5854642 23.5880933,22.2297527 C23.0590065,21.721945 21.7800217,21.2333488 19.4485987,21.2037527 C16.1593709,21.1627334 13.8666616,20.6746565 13.8279479,19.3210219 C13.7992711,18.2913873 10.7165163,18.3729065 8.27755531,18.2498488 C10.4139761,16.9128296 15.0753883,17.521368 17.7552343,16.3660796 C11.3703471,16.6028488 6.1597744,15.5981373 0,15.5264834 C2.18086985,13.7320219 7.90475705,14.3867719 11.3101258,13.385695 C11.0032842,12.6130796 8.59730152,13.0720796 7.62802603,12.703945 C10.0526486,11.6265411 14.0372885,11.3227911 17.2347505,10.6015796 C16.2697766,9.77548342 13.6587549,10.427118 12.166128,9.79157958 C14.0760022,8.57709881 18.5940304,8.9971565 21.9305748,8.23752188 C16.6941931,7.57602188 12.871577,6.14657958 5.42564859,7.07859881 C17.1874338,3.80692573 29.352128,3.51459881 41.4852777,3.92842573 C48.5125249,4.16831035 55.4064252,4.03019496 62.1913536,3.80692573 C83.6760043,3.10181035 105.176427,2.51819496 126.689755,1.9366565 C157.914477,1.09238727 189.121993,0.218002654 220.439915,0.0227718849 C238.514896,-0.0899011921 256.574104,0.245002654 274.639048,0.383637269 C306.673889,0.629233423 338.733106,0.542002654 370.775117,0.716983423 C405.785176,0.908579577 440.792367,1.1874065 475.790954,1.52750265 C501.27315,1.77569496 526.729536,2.30011804 552.213165,2.48081035 C568.646399,2.59711804 584.986434,3.2259065 601.469852,3.12569496 C609.469243,3.07688727 617.510215,3.71294496 625.506738,4.10132958 C627.785108,4.21192573 629.95164,4.20569496 632.232879,4.18856035 C635.801705,4.16207958 640.09462,3.70619496 641.481143,5.91811804 C642.694171,7.85173342 648.79946,7.40467573 653.585616,7.06042573" id="Fill-1"></path>
            </g>
        </g>
    </g>
</svg>