<?xml version="1.0" encoding="UTF-8" standalone="no"?>
<svg width="483px" height="27px" viewBox="0 0 483 27" version="1.1" xmlns="http://www.w3.org/2000/svg" xmlns:xlink="http://www.w3.org/1999/xlink">
    <!-- Generator: sketchtool 44.1 (41455) - http://www.bohemiancoding.com/sketch -->
    <title>38BFD30F-FB46-48CD-9D22-6A194715FD62</title>
    <desc>Created with sketchtool.</desc>
    <defs></defs>
    <g id="Desktop-Template" stroke="none" stroke-width="1" fill="none" fill-rule="evenodd">
        <g id="1.0_School-Landing_B" transform="translate(-475.000000, -316.000000)" fill="#005B83">
            <g id="Full_Width_Hero" transform="translate(-119.000000, 104.000000)">
                <g id="Page-1" transform="translate(594.000000, 212.000000)">
                    <path d="M477.62367,7.14898712 C475.700933,6.20632874 471.689904,6.60904838 471.698286,4.55233917 C474.198369,4.65433344 477.606905,4.29314755 478.801412,5.21740491 C480.538687,6.56330868 482.485524,9.25091029 481.691281,9.70042112 C478.815034,11.3281235 479.707771,12.2739363 482.218331,13.4505507 C482.303204,13.4910329 482.24767,13.673466 482.230905,13.6745175 C475.541665,14.0304459 484.914355,16.3700052 480.146804,17.3331676 C478.738543,17.6175949 482.776816,17.3526201 483,18.362048 C481.342359,18.942469 479.135665,18.027675 477.216071,18.8052499 C480.211769,19.7189924 479.222633,20.7221113 477.967353,22.1021884 C476.457454,23.7635383 476.722551,25.6903889 472.040921,26.5426193 C470.400046,26.8412417 469.059892,27.0415501 467.350909,26.9926559 C453.504057,26.594668 439.660348,26.1635582 425.80197,25.866513 C401.07672,25.3370891 376.310606,25.1047104 351.619934,24.3571029 C326.055387,23.583734 300.464643,23.2325372 274.870757,22.89869 C244.877102,22.507011 214.864587,21.9928337 184.867789,22.1305785 C154.165813,22.2714778 123.455454,22.5396071 92.7461428,23.2462066 C69.5737526,23.7793107 46.3741192,25.1557076 23.0917086,24.1872877 C20.3558682,24.0732014 18.2707198,23.8813049 17.2375759,22.5085882 C16.8509328,21.9944109 15.9162834,21.4996861 14.212539,21.4697187 C11.8088554,21.428185 10.133402,20.933986 10.1051111,19.5633722 C10.0841548,18.5208225 7.8313563,18.6033643 6.04902595,18.4787631 C7.6102677,17.1249731 11.0167086,17.7411447 12.9750716,16.571365 C8.30915915,16.8111042 4.50140576,15.7937902 0,15.7212375 C1.59372397,13.9042674 5.7765945,14.5672302 8.26515099,13.5535964 C8.04091895,12.7712899 6.2826883,13.2360472 5.57436654,12.863295 C7.34621876,11.7723769 10.2580918,11.4648168 12.5947154,10.7345589 C11.8895371,9.89810074 9.98146911,10.557909 8.89069551,9.91439879 C10.2863828,8.68468436 13.5880423,9.11001098 16.0263038,8.34084801 C12.1996898,7.67105058 9.40621963,6.22367828 3.96492537,7.16738815 C12.5601375,3.85467733 21.4497852,3.55868365 30.316381,3.97770135 C35.4517138,4.22059492 40.4896,4.08074711 45.4478523,3.85467733 C61.1482862,3.14071744 76.860246,2.54978156 92.5816362,1.96094866 C115.399865,1.10608947 138.205521,0.220737138 161.091858,0.0230575206 C174.300592,-0.0910288542 187.4978,0.248075808 200.699199,0.388449366 C224.109443,0.637126118 247.5375,0.548801183 270.952983,0.725976797 C296.537439,0.919976209 322.1198,1.20230056 347.695874,1.54666265 C366.317611,1.79796813 384.920488,2.32896922 403.543273,2.51192802 C415.55226,2.6296946 427.49314,3.26637018 439.538802,3.16490165 C445.384552,3.11548174 451.260689,3.75951773 457.104343,4.15277399 C458.769318,4.26475739 460.352564,4.25844847 462.019635,4.24109893 C464.627642,4.214286 467.764795,3.75268306 468.778031,5.99235107 C469.664481,7.95022047 474.12607,7.49755517 477.62367,7.14898712" id="Fill-1"></path>
                </g>
            </g>
        </g>
    </g>
</svg>